REM MD5 9037f56c2bb8a7c4564e460483e20608
FILE "Compilation 02 (Australia).bin" BINARY
  TRACK 01 MODE2/2352
    INDEX 01 00:00:00
  TRACK 02 AUDIO
    INDEX 00 29:19:51
    INDEX 01 29:21:51
  TRACK 03 AUDIO
    INDEX 00 34:28:66
    INDEX 01 34:30:66
REM LEADOUT 37:31:67
